<?xml version="1.0" encoding="UTF-8" standalone="no"?>
<!DOCTYPE svg PUBLIC "-//W3C//DTD SVG 20010904//EN" "http://www.w3.org/TR/2001/REC-SVG-20010904/DTD/svg10.dtd">
<svg version="1.0" xmlns="http://www.w3.org/2000/svg" width="24" height="24" viewBox="0 0 300.000000 299.000000" preserveAspectRatio="xMidYMid meet">

<g transform="translate(0.000000,299.000000) scale(0.100000,-0.100000)" fill="#ffffff" stroke="none">
<path d="M1403 2955 c-14 -10 -24 -12 -28 -5 -9 15 -41 12 -55 -5 -9 -11 -16 -12 -26 -4 -14 11 -54 3 -54 -11 0 -5 -16 -6 -35 -3 -26 4 -36 2 -41 -11 -4 -12 -10 -13 -24 -6 -21 11 -46 4 -53 -15 -4 -8 -15 -11 -33 -7 -18 3 -29 0 -36 -12 -6 -11 -17 -14 -32 -10 -17 4 -28 0 -39 -16 -11 -16 -21 -20 -36 -15 -14 4 -24 0 -33 -14 -8 -13 -23 -21 -41 -21 -21 0 -30 -6 -34 -21 -4 -13 -12 -19 -23 -16 -22 6 -50 -10 -50 -28 0 -9 -10 -15 -25 -15 -15 0 -29 -9 -37 -22 -7 -13 -22 -23 -33 -23 -11 0 -24 -10 -30 -22 -5 -12 -19 -23 -30 -25 -11 -2 -24 -13 -30 -25 -5 -13 -18 -23 -28 -23 -11 0 -24 -13 -32 -32 -8 -18 -14 -29 -15 -25 0 17 -40 -15 -40 -32 0 -12 -10 -21 -25 -25 -17 -4 -25 -13 -25 -29 0 -13 -9 -26 -23 -32 -12 -6 -23 -20 -25 -31 -2 -12 -14 -26 -28 -32 -15 -8 -24 -20 -24 -34 0 -13 -9 -29 -20 -36 -11 -7 -20 -21 -20 -32 0 -10 -9 -24 -21 -30 -13 -7 -19 -19 -17 -33 1 -13 -7 -32 -20 -45 -13 -13 -19 -28 -15 -37 3 -10 -3 -22 -16 -31 -15 -11 -20 -22 -15 -36 4 -12 0 -24 -11 -32 -10 -7 -16 -22 -13 -37 2 -14 -5 -32 -15 -42 -12 -12 -16 -25 -12 -38 4 -13 0 -27 -10 -39 -13 -14 -14 -23 -6 -38 8 -15 7 -23 -5 -33 -10 -9 -14 -22 -10 -41 3 -15 1 -30 -5 -34 -6 -3 -9 -20 -6 -38 2 -17 -1 -39 -7 -48 -8 -13 -8 -23 2 -38 10 -16 10 -24 0 -40 -10 -16 -10 -24 -1 -40 8 -12 9 -21 3 -25 -13 -8 -13 -48 1 -62 8 -8 7 -16 -2 -31 -11 -18 -10 -24 5 -40 11 -13 14 -22 7 -27 -16 -10 -13 -43 5 -53 13 -7 14 -13 5 -30 -9 -18 -8 -25 7 -40 15 -15 16 -23 8 -41 -8 -19 -6 -27 11 -40 16 -14 19 -21 10 -36 -8 -14 -6 -22 10 -35 15 -12 19 -24 16 -42 -4 -19 0 -29 15 -37 13 -7 18 -18 15 -34 -3 -17 2 -29 16 -39 13 -9 19 -21 16 -30 -6 -15 18 -48 34 -48 5 0 6 -11 4 -24 -4 -17 1 -27 15 -35 11 -6 22 -21 24 -33 2 -13 13 -27 25 -33 14 -6 21 -17 20 -30 -1 -12 7 -24 20 -30 14 -6 23 -19 23 -33 0 -14 9 -26 24 -33 14 -7 27 -22 30 -35 3 -12 15 -24 26 -26 12 -2 21 -7 21 -13 2 -22 21 -45 37 -45 9 0 22 -10 27 -22 6 -13 19 -24 30 -26 11 -2 25 -13 30 -25 6 -12 19 -23 30 -25 11 -2 25 -13 30 -25 6 -13 21 -23 36 -25 17 -2 29 -11 32 -23 3 -12 14 -19 29 -19 13 0 29 -9 36 -21 10 -15 21 -20 38 -16 16 3 24 0 24 -9 0 -17 37 -37 51 -28 6 3 17 -4 26 -16 9 -13 23 -20 37 -18 13 1 31 -5 41 -15 11 -12 26 -16 40 -13 15 4 25 1 29 -10 4 -10 16 -14 35 -12 16 1 36 -4 45 -11 9 -7 26 -11 38 -8 14 4 29 0 41 -10 14 -14 22 -15 37 -6 14 10 21 9 30 -2 14 -17 42 -19 56 -5 8 8 15 6 24 -5 15 -18 41 -20 57 -4 8 8 13 8 17 0 9 -14 53 -14 62 0 4 8 9 8 17 0 15 -15 54 -14 60 2 4 9 7 9 18 -1 19 -17 46 -15 58 6 8 14 12 15 22 5 17 -17 48 -16 55 1 5 12 11 13 30 4 19 -9 28 -8 41 5 11 9 28 13 45 10 20 -4 30 -1 34 10 4 11 14 15 33 11 18 -4 32 0 40 10 9 10 22 14 36 10 17 -4 27 0 36 14 10 16 20 19 40 15 21 -4 30 0 39 16 7 15 17 20 30 16 17 -5 50 17 50 34 0 5 12 6 26 3 19 -3 26 0 31 16 3 13 15 22 31 24 15 2 31 12 38 25 6 13 13 20 17 17 12 -12 47 8 47 27 0 14 7 19 25 19 17 0 29 8 37 25 6 14 19 25 29 25 19 0 43 33 32 44 -3 3 3 6 13 6 25 0 44 18 44 42 0 11 7 18 20 18 21 0 40 27 33 48 -3 7 4 12 15 12 23 0 46 25 37 40 -3 5 5 14 19 20 19 7 26 17 26 35 0 15 6 25 15 25 16 0 39 36 31 49 -3 5 6 16 20 26 16 11 24 23 21 34 -2 10 4 23 14 30 11 6 19 21 19 34 0 12 9 31 21 40 12 11 18 25 15 34 -4 9 2 24 14 35 14 13 18 26 14 42 -4 16 0 25 11 30 11 4 16 15 13 35 -1 16 4 36 11 45 7 9 11 26 8 37 -3 13 1 28 10 37 9 10 13 25 9 43 -3 16 0 31 5 35 7 4 9 21 6 40 -3 19 -2 34 4 34 13 0 11 47 -2 55 -7 5 -4 14 7 27 15 16 16 23 6 39 -10 15 -10 23 0 39 10 16 10 24 0 40 -9 15 -10 26 -2 40 13 24 13 26 -5 44 -13 13 -13 19 -3 35 11 17 10 23 -4 37 -13 13 -14 22 -6 40 9 19 8 28 -5 41 -9 11 -13 28 -10 45 4 20 1 30 -10 34 -11 4 -15 14 -11 33 4 18 0 32 -10 40 -10 9 -14 22 -10 36 4 17 0 27 -14 36 -16 10 -19 20 -15 40 4 20 0 30 -15 38 -14 7 -18 17 -15 35 4 17 -1 27 -16 35 -12 7 -21 22 -21 36 0 13 -10 31 -22 39 -12 9 -19 18 -15 22 10 10 -12 44 -28 44 -7 0 -15 12 -17 27 -2 15 -12 32 -23 38 -11 5 -20 19 -20 30 0 11 -10 24 -22 30 -12 5 -23 19 -25 30 -2 11 -13 24 -25 30 -13 5 -23 15 -23 22 0 18 -31 45 -46 39 -9 -3 -14 1 -14 12 0 23 -19 42 -41 42 -11 0 -19 9 -21 23 -2 16 -11 23 -30 25 -20 2 -28 9 -28 22 0 19 -32 36 -49 25 -5 -3 -11 5 -13 17 -2 16 -11 24 -28 26 -13 2 -35 15 -47 29 -13 13 -28 21 -34 17 -6 -3 -17 3 -25 15 -8 12 -25 21 -37 21 -13 0 -31 9 -40 21 -11 12 -25 18 -34 15 -10 -4 -24 2 -35 14 -13 14 -26 19 -40 15 -13 -5 -24 -1 -32 11 -9 11 -21 15 -39 12 -15 -3 -27 -2 -27 3 0 5 -9 13 -21 19 -15 9 -24 8 -36 -1 -12 -11 -17 -10 -25 5 -6 11 -19 16 -38 14 -15 -1 -35 4 -44 11 -13 11 -22 11 -40 3 -18 -8 -27 -7 -40 6 -14 14 -20 15 -37 4 -16 -10 -24 -10 -41 2 -15 11 -26 12 -40 5 -14 -7 -23 -7 -33 1 -15 13 -55 5 -55 -11 0 -5 -10 -3 -23 6 -20 13 -25 13 -44 0z m364 -100 c262 -51 501 -176 698 -367 223 -214 364 -487 411 -793 21 -131 13 -374 -15 -495 -62 -272 -186 -497 -380 -690 -267 -266 -601 -404 -981 -403 -368 0 -689 129 -952 382 -131 125 -215 239 -288 386 -102 208 -143 386 -143 615 0 170 18 288 68 437 168 503 581 851 1114 938 108 18 354 13 468 -10z"/>
<path d="M1478 2833 c18 -2 45 -2 60 0 15 2 0 4 -33 4 -33 0 -45 -2 -27 -4z"/>
<path d="M1343 2823 c9 -2 25 -2 35 0 9 3 1 5 -18 5 -19 0 -27 -2 -17 -5z"/>
<path d="M1628 2823 c12 -2 30 -2 40 0 9 3 -1 5 -23 4 -22 0 -30 -2 -17 -4z"/>
<path d="M1278 2813 c6 -2 18 -2 25 0 6 3 1 5 -13 5 -14 0 -19 -2 -12 -5z"/>
<path d="M1708 2813 c6 -2 18 -2 25 0 6 3 1 5 -13 5 -14 0 -19 -2 -12 -5z"/>
<path d="M1218 2803 c6 -2 18 -2 25 0 6 3 1 5 -13 5 -14 0 -19 -2 -12 -5z"/>
<path d="M1768 2803 c7 -3 16 -2 19 1 4 3 -2 6 -13 5 -11 0 -14 -3 -6 -6z"/>
<path d="M1178 2793 c7 -3 16 -2 19 1 4 3 -2 6 -13 5 -11 0 -14 -3 -6 -6z"/>
<path d="M1541 2766 c-6 -7 -9 -21 -5 -30 5 -14 -2 -16 -52 -16 -42 0 -55 -3 -44 -10 8 -5 25 -10 38 -10 20 0 23 -4 20 -32 -2 -25 -8 -33 -22 -33 -11 0 -21 6 -23 13 -3 7 4 12 16 12 12 0 21 5 21 11 0 21 -45 4 -48 -18 -3 -23 30 -49 48 -38 6 3 10 -3 10 -14 0 -37 19 -32 22 6 2 27 8 39 21 41 20 4 24 -37 5 -56 -9 -9 -8 -12 4 -12 20 0 30 37 17 62 -9 16 -22 22 -41 19 -5 0 -8 8 -8 20 0 17 5 20 38 17 l37 -3 3 -67 c4 -87 22 -89 22 -3 0 37 4 65 10 65 6 0 2 9 -7 19 -10 11 -26 31 -36 45 -20 29 -30 32 -46 12z m49 -25 c15 -28 13 -33 -12 -29 -15 2 -24 11 -26 26 -4 28 23 30 38 3z"/>
<path d="M1242 2738 c-11 -14 -5 -68 8 -68 4 0 13 -27 20 -60 7 -33 17 -63 21 -66 13 -8 11 25 -5 78 -16 51 -14 58 21 58 24 0 30 -19 12 -37 -8 -8 -6 -14 9 -22 26 -14 32 -6 21 32 -5 18 -9 33 -9 34 0 2 9 3 20 3 16 0 20 -10 26 -60 10 -89 24 -83 21 9 -2 76 -3 80 -23 75 -12 -3 -36 3 -55 15 -39 24 -72 27 -87 9z m88 -18 c20 -12 11 -18 -35 -22 -31 -2 -40 1 -43 15 -3 13 3 17 30 17 18 0 40 -4 48 -10z"/>
<path d="M1125 2720 c3 -5 13 -10 22 -10 9 0 25 -8 35 -17 18 -16 14 -18 -79 -48 l-98 -32 -31 24 c-30 22 -64 23 -64 1 0 -6 7 -8 15 -4 17 6 65 -13 65 -26 0 -11 -4 -10 -35 4 -20 9 -28 9 -38 -1 -9 -10 -8 -12 8 -11 47 5 47 -2 -2 -35 l-52 -35 23 -25 c13 -14 31 -25 41 -25 13 0 16 -5 11 -25 -9 -37 10 -31 23 8 l12 32 19 -25 c34 -45 30 -15 -5 38 -37 53 -41 67 -26 76 20 13 44 -9 66 -60 13 -30 28 -54 34 -54 6 0 -3 28 -20 63 l-29 62 27 12 c40 17 63 16 39 -2 -13 -10 -16 -20 -11 -32 5 -10 9 -22 9 -26 3 -30 60 -39 78 -13 4 6 12 5 22 -3 23 -20 20 1 -9 58 -25 50 -24 61 5 61 11 0 22 -17 34 -55 9 -30 21 -57 26 -60 15 -9 12 9 -10 67 -14 37 -16 54 -8 59 16 10 -52 68 -80 69 -13 0 -20 -4 -17 -10z m29 -123 c12 -34 -1 -61 -33 -65 -24 -4 -29 16 -6 24 22 9 18 23 -5 17 -23 -6 -28 12 -5 21 9 3 12 12 8 22 -4 12 -1 15 13 12 10 -2 23 -16 28 -31z m-194 -67 c13 -25 5 -40 -20 -40 -19 0 -36 32 -25 50 10 17 34 11 45 -10z"/>
<path d="M2030 2720 c8 -5 20 -10 25 -10 6 0 3 5 -5 10 -8 5 -19 10 -25 10 -5 0 -3 -5 5 -10z"/>
<path d="M898 2694 c-39 -21 -35 -28 5 -8 37 19 44 24 31 24 -5 -1 -21 -8 -36 -16z"/>
<path d="M2130 2676 c0 -3 14 -12 30 -21 17 -9 30 -13 30 -11 0 3 -13 12 -30 21 -16 9 -30 13 -30 11z"/>
<path d="M814 2644 c-18 -14 -18 -15 4 -4 12 6 22 13 22 15 0 8 -5 6 -26 -11z"/>
<path d="M2008 2633 c-6 -16 -10 -31 -10 -36 1 -4 -6 -24 -17 -45 -24 -49 -34 -82 -24 -82 4 0 19 27 33 60 14 33 27 59 30 57 3 -1 22 -9 43 -17 20 -8 37 -20 37 -27 0 -16 -5 -16 -29 -1 -44 27 -73 -35 -31 -65 13 -9 18 -20 14 -31 -3 -9 -2 -16 3 -16 5 0 21 25 36 55 17 35 33 55 44 56 15 0 14 2 -4 11 -12 6 -24 20 -27 32 -7 30 -51 76 -71 76 -8 0 -21 -12 -27 -27z m71 -20 c12 -14 19 -28 17 -30 -8 -8 -76 21 -76 32 0 33 33 32 59 -2z m-5 -89 c22 -8 8 -34 -20 -34 -23 0 -32 18 -17 33 8 9 17 9 37 1z"/>
<path d="M709 2573 c-13 -16 -12 -17 4 -4 9 7 17 15 17 17 0 8 -8 3 -21 -13z"/>
<path d="M2290 2576 c0 -2 8 -10 18 -17 15 -13 16 -12 3 4 -13 16 -21 21 -21 13z"/>
<path d="M582 2463 l-99 -98 91 85 c50 46 98 90 106 97 8 7 11 13 7 13 -4 0 -51 -44 -105 -97z"/>
<path d="M2330 2548 c0 -2 39 -39 88 -83 48 -43 74 -64 57 -46 -32 35 -145 136 -145 129z"/>
<path d="M1360 2524 c-256 -46 -447 -147 -607 -318 -342 -365 -373 -911 -75 -1312 339 -456 985 -547 1441 -203 301 226 455 617 391 989 -67 392 -374 723 -760 821 -82 20 -325 35 -390 23z m287 -15 c136 -18 291 -78 413 -158 74 -49 213 -182 266 -257 58 -81 129 -231 156 -329 18 -67 22 -107 22 -255 1 -208 -15 -283 -94 -445 -59 -123 -123 -208 -228 -306 -208 -193 -508 -293 -785 -261 -240 28 -427 115 -596 277 -97 93 -152 167 -210 282 -132 265 -138 592 -16 869 40 91 132 221 212 300 227 225 538 327 860 283z"/>
<path d="M1333 2466 c-209 -40 -379 -129 -523 -275 -264 -266 -353 -651 -232 -1001 109 -314 370 -550 699 -632 123 -30 322 -31 443 -1 297 75 534 267 660 535 72 154 85 219 84 418 0 161 -2 182 -27 263 -105 342 -360 588 -705 678 -100 27 -299 34 -399 15z m408 -30 c99 -25 225 -82 306 -138 77 -52 188 -164 243 -243 111 -161 159 -309 167 -511 6 -149 -8 -240 -58 -378 -146 -403 -576 -667 -1004 -616 -399 48 -715 317 -827 706 -20 69 -23 100 -22 254 0 161 2 182 27 263 103 336 370 590 699 667 121 28 132 29 258 25 79 -3 145 -12 211 -29z"/>
<path d="M1441 2335 c-1 -26 10 -40 32 -41 13 -1 17 5 16 30 -1 23 -3 25 -6 9 -2 -13 -9 -23 -14 -23 -5 0 -14 10 -19 23 -8 20 -9 20 -9 2z"/>
<path d="M1571 2318 c2 -31 2 -31 6 -5 2 15 10 27 18 27 8 0 16 -12 18 -27 4 -26 4 -26 6 5 1 28 -2 32 -24 32 -22 0 -25 -4 -24 -32z"/>
<path d="M1320 2330 c0 -6 -11 -15 -25 -20 -30 -11 -33 -30 -5 -30 12 0 20 7 20 17 0 15 1 15 13 -2 13 -16 14 -15 9 13 -4 30 -12 44 -12 22z"/>
<path d="M1517 2333 c-3 -5 -1 -19 4 -32 8 -19 12 -21 24 -11 20 17 19 30 -2 31 -15 0 -15 2 2 9 19 8 19 9 -2 9 -12 1 -24 -2 -26 -6z"/>
<path d="M1694 2305 c-9 -37 0 -40 13 -5 6 17 7 30 2 30 -5 0 -11 -11 -15 -25z"/>
<path d="M1647 2313 c-14 -13 -7 -23 16 -22 21 0 21 1 2 8 l-20 8 20 5 c13 4 15 6 4 7 -9 0 -19 -2 -22 -6z"/>
<path d="M1233 2286 c7 -14 13 -23 15 -21 7 6 -9 45 -18 45 -4 0 -3 -11 3 -24z"/>
<path d="M1770 2292 c0 -13 -6 -22 -15 -22 -18 0 -20 16 -2 23 7 3 5 6 -5 6 -24 1 -23 -26 2 -39 17 -9 20 -7 26 15 4 14 4 29 0 32 -3 4 -6 -3 -6 -15z"/>
<path d="M1199 2281 c10 -19 6 -31 -12 -31 -5 0 -7 7 -4 15 4 8 3 16 -1 19 -4 2 -9 -6 -10 -20 -1 -20 2 -23 23 -22 14 1 25 5 25 8 -1 19 -14 50 -22 50 -5 0 -4 -8 1 -19z"/>
<path d="M1802 2295 c4 -4 3 -18 -3 -32 -6 -16 -6 -22 1 -18 6 3 10 12 10 20 0 7 5 15 12 17 7 3 4 7 -7 12 -11 4 -16 4 -13 1z"/>
<path d="M1132 2245 c6 -14 13 -24 14 -22 6 6 -9 47 -17 47 -5 0 -3 -11 3 -25z"/>
<path d="M1835 2249 c-4 -6 -5 -12 -2 -15 2 -3 7 2 10 11 7 17 1 20 -8 4z"/>
<path d="M1881 2233 c-6 -14 -9 -28 -6 -31 3 -3 5 0 5 6 0 6 7 17 15 26 8 8 11 17 7 20 -5 3 -14 -6 -21 -21z"/>
<path d="M1047 2224 c-3 -5 3 -20 14 -33 22 -27 25 -17 5 18 -7 13 -16 20 -19 15z"/>
<path d="M1090 2218 c0 -20 25 -24 36 -6 5 7 3 8 -6 3 -7 -4 -16 -2 -21 6 -7 11 -9 10 -9 -3z"/>
<path d="M1019 2209 c0 -2 -2 -12 -4 -22 -2 -11 -1 -16 2 -13 4 3 13 0 21 -7 13 -11 14 -9 2 13 -14 28 -20 35 -21 29z"/>
<path d="M1476 2184 c-18 -17 -21 -59 -6 -69 5 -3 14 -20 19 -38 7 -27 10 -29 16 -14 4 10 2 36 -5 56 -7 21 -9 48 -5 60 8 25 2 27 -19 5z"/>
<path d="M2000 2170 c12 -8 10 -10 -8 -10 -29 0 -24 -25 4 -25 12 0 18 -7 18 -18 -2 -17 -1 -17 17 -1 22 20 26 42 4 24 -15 -13 -19 -8 -16 23 2 10 -5 17 -16 17 -15 0 -16 -2 -3 -10z"/>
<path d="M986 2162 c-14 -13 -4 -23 17 -18 12 3 16 3 10 0 -18 -8 -16 -24 2 -24 22 0 18 37 -4 43 -11 3 -22 2 -25 -1z"/>
<path d="M922 2140 l-22 -5 21 -13 c12 -8 18 -9 14 -3 -3 6 -2 11 4 11 5 0 14 -8 20 -17 5 -10 12 -16 14 -13 3 3 -2 14 -11 25 -12 14 -24 19 -40 15z"/>
<path d="M869 2114 c-11 -13 -8 -19 17 -39 37 -31 50 -32 27 -1 -10 13 -24 21 -30 19 -16 -6 -17 9 -1 25 7 7 9 12 6 12 -3 0 -11 -7 -19 -16z"/>
<path d="M2050 2096 c0 -7 6 -19 13 -25 11 -8 18 -6 31 8 13 14 14 21 5 27 -7 4 -10 3 -6 -3 4 -6 0 -16 -7 -22 -11 -9 -16 -9 -21 0 -4 6 -1 15 6 20 11 7 10 9 -3 9 -10 0 -18 -6 -18 -14z"/>
<path d="M927 2089 c7 -7 15 -10 18 -7 3 3 -2 9 -12 12 -14 6 -15 5 -6 -5z"/>
<path d="M1488 2017 c-37 -41 -48 -79 -28 -92 6 -3 10 4 10 16 0 12 14 37 30 56 17 18 30 40 30 48 0 20 0 20 -42 -28z"/>
<path d="M2097 2043 c-4 -3 -7 -11 -7 -17 0 -6 4 -5 9 3 5 8 16 11 26 7 14 -5 15 -9 5 -21 -7 -8 -17 -12 -23 -8 -6 4 -7 1 -2 -7 4 -7 2 -16 -6 -21 -9 -6 -10 -9 -2 -9 11 0 76 59 67 61 -2 1 -8 2 -13 3 -5 0 -13 4 -17 9 -9 9 -28 9 -37 0z"/>
<path d="M1512 1984 c-26 -18 -29 -61 -6 -105 8 -17 12 -39 8 -52 -6 -20 -4 -20 22 5 27 27 28 29 14 60 -7 18 -14 50 -14 71 -1 20 -1 37 -1 37 0 0 -11 -7 -23 -16z"/>
<path d="M1400 1948 c-16 -33 -4 -67 41 -116 29 -32 31 -33 44 -15 22 27 18 39 -20 71 -20 16 -40 42 -44 58 l-8 29 -13 -27z"/>
<path d="M1580 1870 c0 -6 -9 -25 -21 -41 l-20 -29 23 0 c44 0 64 44 33 70 -12 10 -15 10 -15 0z"/>
<path d="M863 1775 c-69 -19 -167 -68 -223 -113 -25 -20 -47 -37 -49 -39 -6 -4 41 -53 51 -53 4 0 29 16 55 36 178 137 384 134 571 -8 35 -27 65 -48 68 -48 2 0 4 27 4 60 0 41 -4 60 -12 60 -14 1 -58 34 -58 44 0 3 16 6 35 6 33 0 35 2 35 35 l0 35 -212 -1 c-150 0 -229 -4 -265 -14z"/>
<path d="M1378 1756 l4 -35 129 -3 129 -3 0 38 0 37 -133 0 -133 0 4 -34z"/>
<path d="M1680 1752 c0 -37 1 -38 30 -34 17 2 30 0 30 -6 0 -6 -13 -16 -30 -24 -28 -12 -30 -16 -30 -70 0 -32 3 -58 6 -58 3 0 25 16 48 35 90 74 248 123 348 109 76 -10 165 -46 225 -91 l58 -43 24 24 c13 13 20 29 17 35 -19 30 -146 107 -219 132 -80 28 -87 29 -294 29 l-213 0 0 -38z"/>
<path d="M1401 1678 c1 -18 2 -19 6 -5 5 20 40 19 36 -1 -2 -7 2 -12 8 -12 24 0 2 35 -24 38 -23 3 -27 0 -26 -20z"/>
<path d="M1486 1692 c6 -4 14 -14 17 -22 4 -12 6 -12 6 2 1 9 7 19 14 21 6 3 -1 6 -18 6 -16 0 -25 -3 -19 -7z"/>
<path d="M1552 1680 c0 -14 2 -19 5 -12 2 6 2 18 0 25 -3 6 -5 1 -5 -13z"/>
<path d="M1597 1680 c-3 -11 -1 -20 4 -20 5 0 9 9 9 20 0 11 -2 20 -4 20 -2 0 -6 -9 -9 -20z"/>
<path d="M1380 1595 c0 -45 0 -45 35 -45 l35 0 2 -172 3 -173 48 -3 47 -3 0 175 0 176 45 0 45 0 0 45 0 45 -130 0 -130 0 0 -45z"/>
<path d="M712 1368 l3 -163 65 1 c116 1 170 52 170 160 0 110 -57 164 -173 164 l-67 0 2 -162z m166 89 c32 -32 42 -110 19 -154 -18 -33 -70 -63 -111 -63 l-26 0 0 126 0 127 46 -6 c31 -3 55 -13 72 -30z"/>
<path d="M1944 1490 c-30 -12 -62 -56 -74 -101 -21 -75 26 -170 91 -184 36 -8 89 19 89 45 0 24 -13 26 -30 5 -25 -31 -84 -16 -105 26 -49 95 27 220 101 164 26 -20 34 -19 34 5 0 11 -12 26 -30 35 -32 17 -45 18 -76 5z"/>
<path d="M1710 1345 l0 -145 60 0 c53 0 60 2 60 20 0 17 -7 20 -45 20 l-45 0 0 49 0 50 42 3 c31 2 44 8 46 21 3 14 -4 17 -43 17 l-46 0 3 38 c3 36 4 37 46 40 28 2 42 8 42 18 0 11 -14 14 -60 14 l-60 0 0 -145z"/>
<path d="M2090 1345 c0 -122 2 -145 15 -145 12 0 15 14 15 70 l0 70 55 0 55 0 0 -70 c0 -56 3 -70 15 -70 13 0 15 23 15 145 0 122 -2 145 -15 145 -12 0 -15 -13 -15 -55 l0 -55 -55 0 -55 0 0 55 c0 42 -3 55 -15 55 -13 0 -15 -23 -15 -145z"/>
<path d="M1014 1457 c-2 -7 -3 -67 -2 -133 l3 -119 68 -3 c62 -3 68 -1 65 15 -2 14 -14 19 -51 21 l-47 3 0 45 0 44 50 0 c38 0 50 4 50 15 0 11 -12 15 -50 15 l-50 0 0 35 0 35 50 0 c43 0 50 3 50 20 0 18 -7 20 -65 20 -45 0 -67 -4 -71 -13z"/>
<path d="M1210 1335 l0 -135 51 0 c43 0 50 3 47 18 -2 11 -14 18 -36 20 l-32 3 0 115 c0 95 -3 114 -15 114 -13 0 -15 -22 -15 -135z"/>
<path d="M684 1139 c-3 -6 0 -18 9 -26 13 -13 14 -12 10 11 -6 29 -9 31 -19 15z"/>
<path d="M732 1130 c0 -14 2 -19 5 -12 2 6 2 18 0 25 -3 6 -5 1 -5 -13z"/>
<path d="M870 1128 c0 -17 3 -19 9 -9 6 9 11 10 15 2 12 -20 36 -12 36 12 0 17 -2 19 -10 7 -7 -12 -12 -12 -22 -2 -18 18 -28 15 -28 -10z"/>
<path d="M1072 1125 c0 -16 2 -22 5 -12 2 9 2 23 0 30 -3 6 -5 -1 -5 -18z"/>
<path d="M1211 1130 c6 -14 13 -27 15 -29 6 -6 33 31 33 44 0 6 -6 1 -14 -9 -15 -20 -15 -20 -31 0 -14 18 -14 18 -3 -6z"/>
<path d="M1394 1135 c-8 -21 4 -35 29 -34 19 0 20 1 4 8 -10 4 -18 11 -18 16 0 5 8 12 18 16 16 7 15 8 -5 8 -12 1 -25 -6 -28 -14z"/>
<path d="M1570 1125 c0 -23 3 -26 10 -15 7 12 12 12 22 2 17 -17 24 -15 24 8 0 15 -5 19 -19 14 -11 -4 -23 0 -28 7 -6 10 -9 5 -9 -16z"/>
<path d="M1740 1142 c0 -5 11 -14 25 -20 15 -7 25 -8 25 -2 0 6 -7 10 -15 10 -8 0 -15 5 -15 10 0 6 -4 10 -10 10 -5 0 -10 -4 -10 -8z"/>
<path d="M1922 1130 c0 -14 2 -19 5 -12 2 6 2 18 0 25 -3 6 -5 1 -5 -13z"/>
<path d="M2070 1130 c0 -11 5 -20 10 -20 6 0 10 9 10 20 0 11 -4 20 -10 20 -5 0 -10 -9 -10 -20z"/>
<path d="M2243 1130 c6 -8 12 -17 13 -18 1 -2 7 5 12 15 8 15 6 18 -13 18 -19 0 -21 -3 -12 -15z"/>
<path d="M1188 953 c7 -3 16 -2 19 1 4 3 -2 6 -13 5 -11 0 -14 -3 -6 -6z"/>
<path d="M982 938 c2 -6 10 -14 16 -16 7 -2 10 2 6 12 -7 18 -28 22 -22 4z"/>
<path d="M1228 943 c7 -3 16 -2 19 1 4 3 -2 6 -13 5 -11 0 -14 -3 -6 -6z"/>
<path d="M1989 915 c-13 -19 -36 -41 -50 -47 -15 -7 -25 -17 -22 -24 3 -8 21 5 48 32 29 30 45 41 48 32 3 -7 6 -1 6 15 1 15 -1 27 -3 27 -2 0 -14 -16 -27 -35z"/>
<path d="M1170 927 c0 -9 -6 -15 -12 -13 -7 1 -10 1 -5 -1 4 -3 7 -14 8 -26 1 -16 4 -12 10 12 6 18 8 36 5 39 -3 3 -6 -2 -6 -11z"/>
<path d="M1268 933 c7 -3 16 -2 19 1 4 3 -2 6 -13 5 -11 0 -14 -3 -6 -6z"/>
<path d="M1748 933 c7 -3 16 -2 19 1 4 3 -2 6 -13 5 -11 0 -14 -3 -6 -6z"/>
<path d="M1110 919 c0 -5 5 -7 10 -4 6 3 10 8 10 11 0 2 -4 4 -10 4 -5 0 -10 -5 -10 -11z"/>
<path d="M1318 923 c7 -3 16 -2 19 1 4 3 -2 6 -13 5 -11 0 -14 -3 -6 -6z"/>
<path d="M1708 923 c7 -3 16 -2 19 1 4 3 -2 6 -13 5 -11 0 -14 -3 -6 -6z"/>
<path d="M1864 919 c-5 -8 -3 -9 6 -4 7 4 16 2 22 -6 8 -12 9 -12 6 0 -6 20 -24 25 -34 10z"/>
<path d="M1373 913 c9 -2 23 -2 30 0 6 3 -1 5 -18 5 -16 0 -22 -2 -12 -5z"/>
<path d="M1643 913 c9 -2 23 -2 30 0 6 3 -1 5 -18 5 -16 0 -22 -2 -12 -5z"/>
<path d="M1830 904 c0 -8 5 -12 10 -9 6 4 8 11 5 16 -9 14 -15 11 -15 -7z"/>
<path d="M991 894 c0 -11 3 -14 6 -6 3 7 2 16 -1 19 -3 4 -6 -2 -5 -13z"/>
<path d="M1010 906 c0 -2 8 -10 18 -17 15 -13 16 -12 3 4 -13 16 -21 21 -21 13z"/>
<path d="M1478 903 c23 -2 61 -2 85 0 23 2 4 4 -43 4 -47 0 -66 -2 -42 -4z"/>
<path d="M1101 884 c0 -11 3 -14 6 -6 3 7 2 16 -1 19 -3 4 -6 -2 -5 -13z"/>
<path d="M1064 865 c11 -8 23 -21 28 -27 6 -10 8 -9 8 3 0 9 -12 21 -27 28 -26 10 -27 10 -9 -4z"/>
<path d="M1841 864 c0 -11 3 -14 6 -6 3 7 2 16 -1 19 -3 4 -6 -2 -5 -13z"/>
<path d="M1000 849 c0 -7 -13 -10 -34 -7 -41 5 -37 -10 16 -57 l33 -30 -34 38 -35 37 32 0 c22 0 32 5 32 15 0 8 -2 15 -5 15 -3 0 -5 -5 -5 -11z"/>
<path d="M1151 847 c-2 -29 17 -55 61 -87 38 -28 39 -30 17 -31 -17 -1 -14 -4 11 -8 42 -8 46 -6 55 37 6 27 4 32 -12 32 -11 0 -42 7 -71 15 -38 12 -52 21 -55 38 -3 16 -5 17 -6 4z"/>
<path d="M1990 838 c0 -5 14 -8 30 -8 17 0 33 0 37 -1 4 0 9 3 10 8 2 4 -15 8 -37 8 -22 0 -40 -3 -40 -7z"/>
<path d="M1847 827 c-3 -8 -34 -20 -72 -28 -66 -13 -67 -13 -61 -42 3 -16 6 -33 6 -38 0 -14 22 -11 39 6 9 8 31 27 49 41 33 26 58 62 49 70 -2 3 -7 -2 -10 -9z"/>
<path d="M1451 814 c0 -11 3 -14 6 -6 3 7 2 16 -1 19 -3 4 -6 -2 -5 -13z"/>
<path d="M1487 824 c7 -3 9 -13 6 -22 -5 -13 -3 -14 7 -5 14 13 5 33 -13 32 -9 0 -9 -2 0 -5z"/>
<path d="M1527 815 c-4 -8 -2 -17 3 -20 6 -4 10 3 10 14 0 25 -6 27 -13 6z"/>
<path d="M1590 810 c0 -5 5 -10 10 -10 6 0 10 5 10 10 0 6 -4 10 -10 10 -5 0 -10 -4 -10 -10z"/>
<path d="M1081 801 c-1 -7 13 -30 29 -51 20 -25 26 -40 18 -42 -7 -3 -3 -7 9 -10 16 -4 24 -1 28 13 4 10 14 19 23 20 9 0 -7 9 -36 20 -33 13 -57 29 -62 42 -5 12 -9 16 -9 8z"/>
<path d="M1890 779 c-19 -17 -45 -32 -57 -35 -19 -5 -20 -8 -9 -20 8 -7 16 -18 18 -24 2 -8 11 -8 28 -1 14 5 19 10 13 10 -7 1 1 20 19 46 17 25 30 47 27 49 -2 2 -20 -9 -39 -25z"/>
<path d="M2010 779 c-35 -31 -35 -31 -3 -9 18 11 35 25 38 30 10 16 2 11 -35 -21z"/>
<path d="M1333 773 c9 -2 23 -2 30 0 6 3 -1 5 -18 5 -16 0 -22 -2 -12 -5z"/>
<path d="M1653 773 c9 -2 23 -2 30 0 6 3 -1 5 -18 5 -16 0 -22 -2 -12 -5z"/>
<path d="M1453 763 c32 -2 81 -2 110 0 29 2 3 3 -58 3 -60 0 -84 -1 -52 -3z"/>
<path d="M1930 730 c-19 -11 -31 -19 -27 -20 11 0 67 29 67 35 0 7 -1 7 -40 -15z"/>
<path d="M1778 723 c7 -3 16 -2 19 1 4 3 -2 6 -13 5 -11 0 -14 -3 -6 -6z"/>
<path d="M2161 2506 c-9 -11 -9 -20 -2 -35 16 -29 14 -31 -19 -24 -31 6 -43 -12 -15 -23 10 -4 13 -14 9 -30 -4 -15 -2 -24 5 -24 6 0 11 11 11 25 0 15 6 25 14 25 14 0 56 45 56 61 0 10 -29 39 -39 39 -5 0 -14 -6 -20 -14z m39 -26 c0 -11 -7 -20 -15 -20 -8 0 -15 9 -15 20 0 11 7 20 15 20 8 0 15 -9 15 -20z"/>
<path d="M2230 2481 c0 -5 16 -23 36 -39 20 -17 33 -35 30 -41 -4 -6 -14 -3 -26 9 -27 27 -48 25 -62 -6 -11 -23 -10 -29 11 -45 19 -16 21 -22 11 -34 -7 -9 -10 -18 -8 -21 3 -3 25 18 49 46 38 45 44 49 58 35 14 -13 11 -20 -29 -60 -57 -58 -44 -72 14 -16 25 25 49 40 55 36 8 -5 10 1 5 19 -5 22 -3 26 15 26 23 0 41 -27 41 -61 0 -21 -1 -22 -20 -4 -26 24 -25 12 2 -25 26 -36 18 -50 -12 -20 -24 24 -48 23 -64 -2 -8 -13 -8 -23 2 -39 10 -16 11 -24 1 -35 -24 -30 1 -24 49 10 54 39 73 39 91 -1 14 -31 6 -43 -13 -18 -13 18 -14 18 -45 -4 -36 -26 -39 -50 -11 -76 15 -14 17 -20 8 -26 -7 -4 -9 -11 -6 -15 4 -3 30 8 59 25 28 18 58 30 65 27 30 -11 12 -34 -46 -59 -33 -15 -60 -31 -60 -36 0 -10 46 6 104 36 24 12 30 13 37 1 7 -11 9 -11 9 1 0 17 -48 97 -100 166 -26 36 -38 64 -42 97 -3 27 -11 55 -18 63 -16 19 -49 19 -56 0 -5 -12 -15 -7 -48 22 -65 58 -86 74 -86 64z m34 -84 c16 -12 16 -14 3 -26 -25 -20 -72 11 -50 32 10 11 27 8 47 -6z m126 -132 c13 -16 6 -35 -14 -35 -18 0 -39 27 -31 40 9 14 31 12 45 -5z m74 -90 c3 -8 13 -14 23 -12 31 4 27 -17 -6 -37 -29 -17 -33 -17 -56 -2 -26 17 -34 46 -14 46 7 0 18 -8 26 -17 12 -16 13 -15 7 10 -6 28 9 39 20 12z"/>
<path d="M2520 2355 c13 -14 26 -25 28 -25 3 0 -5 11 -18 25 -13 14 -26 25 -28 25 -3 0 5 -11 18 -25z"/>
<path d="M454 2328 l-19 -23 23 19 c21 18 27 26 19 26 -2 0 -12 -10 -23 -22z"/>
<path d="M2550 2316 c0 -2 8 -10 18 -17 15 -13 16 -12 3 4 -13 16 -21 21 -21 13z"/>
<path d="M419 2283 c-13 -16 -12 -17 4 -4 9 7 17 15 17 17 0 8 -8 3 -21 -13z"/>
<path d="M513 2294 c-19 -8 -16 -41 4 -52 14 -9 9 -21 -42 -96 -32 -47 -56 -89 -52 -92 3 -3 15 9 26 27 36 61 83 119 97 119 21 0 17 -15 -11 -41 -13 -13 -25 -28 -25 -33 0 -5 -12 -24 -26 -43 -21 -27 -23 -37 -14 -48 14 -17 77 -20 100 -5 10 7 1 8 -31 4 -37 -5 -47 -3 -52 10 -7 18 15 32 33 21 5 -3 10 -1 10 4 0 6 -4 11 -10 11 -5 0 -10 5 -10 11 0 6 16 8 44 4 27 -4 51 -3 63 4 15 10 13 11 -14 6 -40 -8 -79 10 -63 30 6 7 21 11 33 8 21 -5 21 -5 3 9 -32 25 0 32 34 8 17 -12 35 -20 41 -18 6 2 -14 20 -45 41 -38 25 -54 41 -50 52 5 11 2 13 -10 9 -19 -7 -34 22 -19 37 13 13 43 0 43 -19 0 -8 3 -12 7 -8 4 3 28 -15 55 -41 26 -26 51 -44 55 -40 4 4 -12 27 -35 50 -23 24 -42 48 -42 54 0 7 -8 11 -17 11 -10 0 -29 2 -43 5 -14 3 -31 3 -37 1z"/>
<path d="M2605 2243 c15 -24 30 -43 32 -43 7 0 -31 61 -46 73 -8 7 -2 -7 14 -30z"/>
<path d="M350 2180 c-6 -11 -8 -20 -6 -20 3 0 10 9 16 20 6 11 8 20 6 20 -3 0 -10 -9 -16 -20z"/>
<path d="M2691 2100 c14 -31 19 -36 19 -24 0 6 -7 19 -16 30 -14 18 -14 18 -3 -6z"/>
<path d="M2590 2043 c1 -5 7 -19 15 -33 8 -14 14 -33 15 -42 0 -30 -20 -20 -36 17 -17 41 -34 51 -61 37 -20 -11 -59 -72 -46 -72 4 0 16 14 25 30 10 18 25 30 38 30 25 0 26 -18 3 -36 -16 -12 -15 -13 10 -14 39 0 33 -16 -10 -30 -39 -13 -66 -30 -47 -30 6 0 37 9 69 20 32 11 67 18 76 15 16 -5 15 2 -8 54 -15 34 -30 61 -35 61 -4 0 -8 -3 -8 -7z"/>
<path d="M397 2025 c-4 -11 -25 -30 -47 -43 -38 -21 -59 -59 -46 -81 3 -5 25 -12 49 -16 23 -4 63 -13 89 -20 26 -8 50 -10 53 -5 3 4 -24 16 -60 25 -36 10 -65 21 -65 25 0 17 23 70 30 70 5 0 10 -12 12 -27 4 -36 47 -44 75 -15 10 11 25 22 33 25 11 4 9 6 -5 6 -12 1 -26 6 -32 12 -8 8 -13 7 -18 -1 -4 -7 -2 -16 5 -20 17 -11 3 -30 -22 -30 -17 0 -20 5 -16 30 3 18 0 31 -8 34 -7 3 -14 15 -16 28 -4 22 -4 22 -11 3z m-34 -83 c-18 -46 -43 -56 -43 -18 0 21 46 73 56 63 2 -2 -4 -22 -13 -45z"/>
<path d="M266 2015 c-9 -26 -7 -32 5 -12 6 10 9 21 6 23 -2 3 -7 -2 -11 -11z"/>
<path d="M2650 1890 c0 -23 -12 -25 -39 -8 -26 16 -53 -6 -49 -41 2 -19 -3 -29 -22 -38 -22 -11 -19 -12 25 -6 28 4 67 7 88 7 29 0 36 4 33 16 -2 8 -7 32 -11 53 -6 39 -25 52 -25 17z m-14 -30 c32 0 31 -28 -1 -36 -34 -9 -55 1 -55 27 0 15 4 19 16 15 9 -3 27 -6 40 -6z"/>
<path d="M2801 1784 c0 -11 3 -14 6 -6 3 7 2 16 -1 19 -3 4 -6 -2 -5 -13z"/>
<path d="M191 1764 c0 -11 3 -14 6 -6 3 7 2 16 -1 19 -3 4 -6 -2 -5 -13z"/>
<path d="M2812 1740 c0 -14 2 -19 5 -12 2 6 2 18 0 25 -3 6 -5 1 -5 -13z"/>
<path d="M182 1710 c0 -14 2 -19 5 -12 2 6 2 18 0 25 -3 6 -5 1 -5 -13z"/>
<path d="M2822 1675 c0 -16 2 -22 5 -12 2 9 2 23 0 30 -3 6 -5 -1 -5 -18z"/>
<path d="M173 1625 c0 -22 2 -30 4 -17 2 12 2 30 0 40 -3 9 -5 -1 -4 -23z"/>
<path d="M2834 1500 c0 -69 1 -97 3 -62 2 34 2 90 0 125 -2 34 -3 6 -3 -63z"/>
<path d="M335 1560 c-6 -27 -10 -30 -48 -30 l-42 0 32 -26 c28 -22 31 -28 23 -50 -16 -41 -12 -46 19 -23 l29 22 31 -22 c35 -25 35 -25 20 17 -10 29 -8 34 18 56 l28 25 -37 1 c-31 0 -37 4 -47 30 -5 17 -12 30 -15 30 -2 0 -7 -13 -11 -30z"/>
<path d="M2654 1560 c-6 -27 -10 -30 -48 -30 l-41 -1 32 -27 c24 -21 29 -31 23 -47 -17 -39 -11 -46 20 -24 27 20 31 21 47 7 37 -31 42 -30 31 6 -10 32 -9 37 18 60 l29 25 -37 1 c-31 0 -37 4 -47 30 -5 17 -13 30 -16 30 -3 0 -8 -13 -11 -30z"/>
<path d="M173 1375 c0 -22 2 -30 4 -17 2 12 2 30 0 40 -3 9 -5 -1 -4 -23z"/>
<path d="M2822 1325 c0 -16 2 -22 5 -12 2 9 2 23 0 30 -3 6 -5 -1 -5 -18z"/>
<path d="M182 1290 c0 -14 2 -19 5 -12 2 6 2 18 0 25 -3 6 -5 1 -5 -13z"/>
<path d="M2812 1260 c0 -14 2 -19 5 -12 2 6 2 18 0 25 -3 6 -5 1 -5 -13z"/>
<path d="M2630 1260 c0 -7 7 -22 16 -31 16 -17 15 -19 -10 -28 -37 -15 -34 -33 4 -19 17 5 44 8 60 6 21 -3 30 0 30 9 0 7 -8 13 -17 13 -9 0 -32 14 -50 32 -19 18 -33 26 -33 18z"/>
<path d="M191 1234 c0 -11 3 -14 6 -6 3 7 2 16 -1 19 -3 4 -6 -2 -5 -13z"/>
<path d="M325 1215 c-34 -10 -40 -16 -37 -36 7 -50 59 -69 100 -37 21 18 12 89 -12 87 -6 -1 -29 -7 -51 -14z m55 -35 c0 -12 -9 -24 -22 -29 -30 -11 -48 -3 -48 19 0 20 13 28 48 29 16 1 22 -5 22 -19z"/>
<path d="M2801 1214 c0 -11 3 -14 6 -6 3 7 2 16 -1 19 -3 4 -6 -2 -5 -13z"/>
<path d="M2587 1121 c-18 -43 -14 -72 4 -39 9 15 13 16 51 2 25 -8 45 -11 51 -5 5 5 -9 15 -34 23 -32 11 -45 21 -49 39 -5 22 -7 20 -23 -20z"/>
<path d="M221 1114 c0 -11 3 -14 6 -6 3 7 2 16 -1 19 -3 4 -6 -2 -5 -13z"/>
<path d="M362 1111 c-24 -10 -43 -22 -43 -27 2 -26 24 -73 31 -69 5 3 4 17 -2 31 -10 20 -9 27 3 35 10 6 16 2 23 -16 14 -35 27 -31 20 5 -8 38 12 41 27 4 14 -39 23 -21 9 20 -13 41 -10 40 -68 17z"/>
<path d="M2560 1052 c0 -8 88 -52 104 -52 19 0 1 22 -27 34 -56 23 -77 28 -77 18z"/>
<path d="M392 1010 l-43 -19 17 -33 c23 -46 28 -48 21 -11 -6 30 -4 34 33 53 67 34 44 43 -28 10z"/>
<path d="M2536 1001 c-10 -11 -16 -28 -14 -38 4 -23 41 -29 58 -8 7 8 19 15 26 15 22 0 16 -26 -8 -43 l-23 -16 22 0 c38 -1 60 70 26 83 -10 4 -28 -1 -45 -14 -32 -24 -38 -25 -38 -6 0 8 7 16 15 20 16 6 21 26 7 26 -5 0 -17 -9 -26 -19z"/>
<path d="M2736 1005 c-9 -26 -7 -32 5 -12 6 10 9 21 6 23 -2 3 -7 -2 -11 -11z"/>
<path d="M260 1005 c0 -5 5 -17 10 -25 5 -8 10 -10 10 -5 0 6 -5 17 -10 25 -5 8 -10 11 -10 5z"/>
<path d="M440 929 c-43 -26 -45 -28 -38 -35 4 -3 15 -1 27 5 16 9 22 8 31 -8 8 -16 6 -23 -12 -35 -36 -26 -14 -28 36 -4 52 25 60 40 19 36 -34 -4 -44 27 -16 47 30 23 -6 18 -47 -6z"/>
<path d="M2479 901 c-12 -16 -21 -32 -21 -36 0 -4 20 -20 43 -36 45 -30 78 -28 38 2 -26 19 -20 25 30 31 14 2 26 9 29 17 3 10 -2 13 -22 9 -22 -4 -29 -1 -36 18 -13 32 -35 30 -61 -5z m38 -25 c-4 -9 -13 -16 -22 -16 -18 0 -19 5 -4 32 13 24 35 9 26 -16z"/>
<path d="M2691 903 c-10 -26 -10 -27 4 -9 8 11 15 23 15 28 0 15 -7 8 -19 -19z"/>
<path d="M300 911 c0 -6 4 -13 10 -16 6 -3 7 1 4 9 -7 18 -14 21 -14 7z"/>
<path d="M492 831 c-24 -16 -40 -31 -35 -34 10 -6 93 42 93 54 0 15 -13 10 -58 -20z"/>
<path d="M350 820 c6 -11 13 -20 16 -20 2 0 0 9 -6 20 -6 11 -13 20 -16 20 -2 0 0 -9 6 -20z"/>
<path d="M2402 797 l-31 -43 20 -30 c27 -41 24 -46 -17 -29 -41 17 -54 19 -54 7 0 -13 103 -53 113 -43 5 5 -3 30 -17 60 -15 28 -23 51 -19 51 5 0 26 -14 47 -30 l39 -30 24 32 c31 42 29 61 -2 23 -19 -23 -27 -27 -36 -18 -9 9 -8 18 5 37 20 31 7 34 -19 6 -12 -14 -22 -17 -29 -10 -6 6 -4 16 7 28 19 20 22 32 9 32 -5 0 -23 -19 -40 -43z"/>
<path d="M2644 818 c-4 -7 -14 -24 -22 -38 -14 -24 -13 -24 3 -5 20 24 37 55 31 55 -3 0 -8 -6 -12 -12z"/>
<path d="M2589 733 c-13 -16 -12 -17 4 -4 16 13 21 21 13 21 -2 0 -10 -8 -17 -17z"/>
<path d="M410 726 c0 -2 8 -10 18 -17 15 -13 16 -12 3 4 -13 16 -21 21 -21 13z"/>
<path d="M2559 693 c-13 -16 -12 -17 4 -4 9 7 17 15 17 17 0 8 -8 3 -21 -13z"/>
<path d="M468 655 c17 -22 66 -74 109 -115 74 -72 73 -70 -17 25 -127 135 -128 136 -92 90z"/>
<path d="M2300 684 c0 -14 63 -84 76 -84 23 0 17 13 -24 53 -36 35 -52 45 -52 31z"/>
<path d="M2519 643 l-24 -28 28 24 c25 23 32 31 24 31 -2 0 -14 -12 -28 -27z"/>
<path d="M2270 649 c0 -9 7 -22 15 -29 26 -21 17 -28 -25 -17 -22 6 -42 8 -46 4 -9 -9 57 -85 74 -86 9 -1 6 8 -7 26 -26 32 -21 39 20 24 55 -19 60 3 11 52 -28 28 -42 36 -42 26z"/>
<path d="M771 611 c10 -15 7 -25 -16 -55 -15 -20 -25 -40 -21 -44 7 -6 15 2 51 51 9 13 20 17 35 12 21 -7 21 -7 -6 -52 -29 -50 -28 -53 29 -84 25 -14 21 6 -5 23 -14 10 -19 20 -15 32 6 16 8 16 32 0 14 -9 25 -12 25 -6 0 6 -9 16 -21 23 -16 8 -18 14 -10 22 9 9 17 8 31 -1 23 -14 30 -15 30 -4 0 4 -15 16 -32 27 -18 10 -48 31 -66 47 -38 32 -58 37 -41 9z"/>
<path d="M2440 553 l-55 -58 58 55 c53 50 62 60 54 60 -1 0 -27 -26 -57 -57z"/>
<path d="M2180 583 c0 -4 12 -24 26 -44 14 -21 23 -43 19 -48 -12 -21 -40 -10 -64 24 -13 19 -27 32 -32 29 -10 -6 -7 -14 25 -56 23 -32 56 -36 79 -10 22 24 22 25 -9 72 -24 36 -44 51 -44 33z"/>
<path d="M911 484 c-12 -15 -21 -33 -21 -41 0 -28 21 -53 45 -53 34 0 41 18 8 22 -36 4 -42 37 -12 63 21 20 21 20 39 -3 21 -26 30 -28 30 -8 0 16 -37 46 -56 46 -7 0 -22 -12 -33 -26z"/>
<path d="M2349 473 l-24 -28 28 24 c15 14 27 26 27 28 0 8 -8 1 -31 -24z"/>
<path d="M664 462 c8 -13 66 -56 66 -49 0 3 -17 17 -37 33 -20 15 -33 23 -29 16z"/>
<path d="M1003 418 c-23 -60 -20 -74 6 -39 26 34 55 22 46 -19 -4 -19 -3 -30 4 -30 6 0 11 2 11 5 0 2 9 27 20 55 17 42 17 50 5 50 -8 0 -15 -7 -15 -16 0 -10 -7 -14 -22 -12 -18 2 -22 9 -20 31 5 44 -14 31 -35 -25z"/>
<path d="M1918 444 c-8 -8 32 -104 44 -104 18 0 73 33 61 37 -7 2 -21 -1 -33 -7 -19 -10 -23 -7 -41 34 -21 48 -22 50 -31 40z"/>
<path d="M2299 433 c-13 -16 -12 -17 4 -4 16 13 21 21 13 21 -2 0 -10 -8 -17 -17z"/>
<path d="M1109 375 c-17 -58 -6 -77 14 -22 l11 32 11 -39 c16 -55 30 -55 49 0 18 55 19 64 7 64 -5 0 -12 -13 -16 -30 -9 -42 -22 -37 -30 10 -9 56 -27 50 -46 -15z"/>
<path d="M1840 391 c0 -16 -3 -43 -6 -60 -4 -20 -3 -31 5 -31 6 0 11 7 11 15 0 20 46 30 65 15 27 -23 17 9 -16 51 -37 47 -59 51 -59 10z m40 -27 c0 -8 -4 -14 -10 -14 -5 0 -10 9 -10 21 0 11 5 17 10 14 6 -3 10 -13 10 -21z"/>
<path d="M1236 384 c-22 -22 -30 -59 -16 -83 10 -20 26 -26 60 -21 42 5 54 79 18 104 -28 20 -43 20 -62 0z m48 -10 c20 -8 21 -57 2 -73 -11 -10 -20 -10 -36 -1 -17 9 -20 17 -15 38 4 15 12 30 18 34 15 9 12 9 31 2z"/>
<path d="M1726 385 c-22 -22 -20 -68 3 -89 23 -21 60 -18 75 6 15 24 -1 35 -19 12 -19 -27 -50 -7 -50 32 0 26 3 29 33 27 21 -1 32 3 29 10 -6 19 -53 20 -71 2z"/>
<path d="M1336 324 c-4 -31 -5 -59 -2 -61 2 -2 21 -3 42 -1 l39 4 -31 8 c-30 8 -31 9 -26 57 6 69 -14 62 -22 -7z"/>
<path d="M1572 364 c-31 -22 -30 -78 2 -99 33 -22 76 -5 76 30 0 18 -5 25 -20 25 -22 0 -27 -16 -7 -23 9 -4 9 -7 -1 -18 -19 -20 -46 1 -50 38 -4 35 18 49 49 33 15 -8 19 -7 19 4 0 12 -20 26 -39 26 -3 0 -17 -7 -29 -16z"/>
<path d="M1671 329 c8 -52 15 -67 24 -57 10 9 -9 101 -21 105 -8 3 -9 -12 -3 -48z"/>
<path d="M800 366 c0 -3 9 -10 20 -16 11 -6 20 -8 20 -6 0 3 -9 10 -20 16 -11 6 -20 8 -20 6z"/>
<path d="M1436 348 c-9 -12 -16 -29 -16 -38 0 -49 61 -77 94 -44 19 18 21 75 4 92 -20 20 -65 14 -82 -10z m69 -38 c0 -28 -4 -36 -22 -38 -14 -2 -26 4 -33 17 -15 29 4 63 33 59 18 -2 22 -10 22 -38z"/>
<path d="M2164 344 c-18 -14 -18 -15 4 -4 12 6 22 13 22 15 0 8 -5 6 -26 -11z"/>
<path d="M850 335 c0 -7 81 -47 86 -43 2 3 -17 14 -41 26 -25 12 -45 20 -45 17z"/>
<path d="M2030 280 c-8 -5 -10 -10 -5 -10 6 0 17 5 25 10 8 5 11 10 5 10 -5 0 -17 -5 -25 -10z"/>
<path d="M1138 213 c7 -3 16 -2 19 1 4 3 -2 6 -13 5 -11 0 -14 -3 -6 -6z"/>
<path d="M1178 203 c7 -3 16 -2 19 1 4 3 -2 6 -13 5 -11 0 -14 -3 -6 -6z"/>
<path d="M1218 193 c7 -3 16 -2 19 1 4 3 -2 6 -13 5 -11 0 -14 -3 -6 -6z"/>
<path d="M1768 193 c7 -3 16 -2 19 1 4 3 -2 6 -13 5 -11 0 -14 -3 -6 -6z"/>
<path d="M1268 183 c6 -2 18 -2 25 0 6 3 1 5 -13 5 -14 0 -19 -2 -12 -5z"/>
<path d="M1708 183 c6 -2 18 -2 25 0 6 3 1 5 -13 5 -14 0 -19 -2 -12 -5z"/>
<path d="M1343 173 c9 -2 25 -2 35 0 9 3 1 5 -18 5 -19 0 -27 -2 -17 -5z"/>
<path d="M1633 173 c9 -2 25 -2 35 0 9 3 1 5 -18 5 -19 0 -27 -2 -17 -5z"/>
<path d="M1463 163 c20 -2 54 -2 75 0 20 2 3 4 -38 4 -41 0 -58 -2 -37 -4z"/>
</g>
</svg>